<svg id="noun-star-2186316" xmlns="http://www.w3.org/2000/svg" width="70" height="70" viewBox="0 0 70 70">
  <path id="Path_99" data-name="Path 99" d="M191.2,181.847a2.213,2.213,0,0,1-1.582-.846,2.429,2.429,0,0,1-.5-1.785l2.73-22.181L177.2,140.752h0a2.43,2.43,0,0,1-.487-2.323,2.282,2.282,0,0,1,1.7-1.578l20.97-4.128,10.226-19.641h0a2.2,2.2,0,0,1,3.943,0l10.226,19.641,21.015,4.128h0a2.282,2.282,0,0,1,1.7,1.578,2.43,2.43,0,0,1-.487,2.323l-14.645,16.284,2.73,22.181h0a2.4,2.4,0,0,1-.92,2.2,2.161,2.161,0,0,1-2.287.2L211.607,172l-19.324,9.616a2.154,2.154,0,0,1-1.083.227Zm2.9-6.35,16.551-8.165a2.153,2.153,0,0,1,1.907,0l16.551,8.165-2.339-18.96a2.42,2.42,0,0,1,.606-1.951l12.565-13.926-18.025-3.538a2.254,2.254,0,0,1-1.56-1.179l-8.8-16.829-8.752,16.829a2.254,2.254,0,0,1-1.56,1.179l-17.981,3.538,12.565,13.926a2.42,2.42,0,0,1,.606,1.951Z" transform="translate(-176.607 -111.856)"/>
</svg>
