<svg id="noun-complete-3591706" xmlns="http://www.w3.org/2000/svg" width="70" height="70" viewBox="0 0 70 70">
  <path id="Path_105" data-name="Path 105" d="M122.5,21A35,35,0,1,0,140,25.689,35,35,0,0,0,122.5,21Zm0,65.333a30.333,30.333,0,1,1,21.449-8.884A30.336,30.336,0,0,1,122.5,86.333Z" transform="translate(-87.497 -21)"/>
  <path id="Path_106" data-name="Path 106" d="M242.5,180.319a2.884,2.884,0,0,0-3.545,0l-23.353,19.446a.782.782,0,0,1-.93,0l-10.207-8.5a2.884,2.884,0,0,0-3.545,0,1.856,1.856,0,0,0,0,2.952l13.751,11.45a.782.782,0,0,0,.93,0l26.9-22.335a1.856,1.856,0,0,0,0-2.952Z" transform="translate(-186.714 -157)"/>
</svg>
